<?xml version="1.0" standalone="no"?>
<!DOCTYPE svg PUBLIC "-//W3C//DTD SVG 20010904//EN"
 "http://www.w3.org/TR/2001/REC-SVG-20010904/DTD/svg10.dtd">
<svg version="1.0" xmlns="http://www.w3.org/2000/svg"
 width="700.000000pt" height="700.000000pt" viewBox="0 0 700.000000 700.000000"
 preserveAspectRatio="xMidYMid meet">
<metadata>
Created by potrace 1.14, written by Peter Selinger 2001-2017
</metadata>
<g transform="translate(0.000000,700.000000) scale(0.100000,-0.100000)"
fill="#000000" stroke="none">
<path d="M1540 6985 c-316 -46 -567 -148 -817 -330 -106 -78 -294 -270 -376
-385 -150 -212 -271 -517 -302 -765 -4 -27 -8 -61 -11 -75 -5 -27 -5 -3772 0
-3805 2 -11 6 -47 11 -80 10 -77 28 -162 54 -250 12 -38 19 -76 16 -83 -3 -7
-1 -11 4 -7 5 3 15 -11 22 -32 6 -20 21 -57 32 -82 11 -25 20 -48 20 -51 -1
-3 8 -17 18 -32 10 -14 19 -28 19 -31 0 -7 82 -151 90 -157 21 -18 68 -95 63
-103 -3 -6 -1 -7 4 -4 11 7 49 -41 45 -55 -1 -5 4 -7 11 -5 6 1 11 -4 10 -10
-2 -7 4 -13 13 -13 10 0 14 -6 10 -15 -3 -8 -2 -14 3 -12 13 3 156 -134 153
-147 -2 -6 0 -8 3 -4 4 4 33 -12 64 -36 123 -94 249 -164 444 -250 25 -11 36
-20 31 -29 -6 -8 -3 -8 9 1 17 14 61 7 52 -8 -3 -4 5 -6 17 -2 13 3 19 1 15
-5 -4 -6 3 -8 18 -5 15 2 25 0 25 -7 0 -7 4 -10 9 -7 16 10 111 -16 104 -28
-4 -6 1 -5 10 3 9 7 17 10 17 5 0 -5 10 -10 23 -11 12 -1 42 -3 67 -5 25 -3
69 -5 98 -6 29 -1 52 -7 52 -13 0 -5 -5 -7 -12 -3 -7 5 -8 3 -3 -6 7 -11 10
-10 19 1 14 18 42 18 38 -1 -3 -11 0 -11 12 0 17 14 155 20 163 7 2 -4 9 -4
15 -1 17 11 137 10 131 0 -4 -5 0 -6 7 -1 20 12 60 12 52 0 -3 -5 1 -4 10 3
13 10 17 10 21 0 3 -7 6 -8 6 -3 1 9 64 12 96 5 6 -1 12 -1 15 0 3 1 28 3 57
4 35 2 50 -1 46 -8 -4 -6 1 -5 10 3 12 9 17 10 17 2 0 -7 5 -9 12 -5 17 11
137 11 131 0 -4 -5 0 -6 7 -1 20 12 60 12 52 0 -3 -5 1 -4 10 3 13 10 17 10
21 0 3 -7 6 -8 6 -3 1 9 64 12 96 5 6 -1 12 -1 15 0 3 1 28 3 57 4 35 2 50 -1
46 -8 -4 -6 1 -5 10 3 12 9 17 10 17 2 0 -7 5 -9 12 -5 17 11 137 11 131 0 -4
-5 0 -6 7 -1 20 12 60 12 52 0 -3 -5 2 -4 11 4 14 11 17 11 17 0 0 -9 3 -10 8
-4 9 12 152 13 145 1 -4 -5 0 -5 8 0 19 11 159 12 151 0 -3 -5 1 -5 9 0 19 11
159 12 151 0 -3 -5 1 -5 9 0 19 11 159 12 151 0 -3 -5 1 -5 9 0 19 11 119 12
111 0 -3 -5 1 -6 9 -1 21 13 109 14 102 1 -4 -6 1 -5 10 3 12 9 17 10 17 2 0
-7 5 -9 12 -5 17 11 137 11 131 0 -4 -5 0 -6 7 -1 20 12 60 12 52 0 -3 -5 1
-4 10 3 13 10 17 10 21 0 3 -7 6 -8 6 -3 1 9 64 12 96 5 6 -1 12 -1 15 0 3 1
28 3 57 4 35 2 50 -1 46 -8 -4 -6 1 -5 10 3 13 10 17 10 17 1 0 -9 4 -9 17 1
14 12 16 12 8 0 -6 -10 -4 -12 6 -6 21 13 109 14 102 1 -4 -6 1 -5 10 3 12 9
17 10 17 2 0 -7 5 -9 12 -5 17 11 137 11 131 0 -4 -5 0 -6 7 -1 20 12 60 12
52 0 -3 -5 1 -4 10 3 13 10 17 10 21 0 3 -7 6 -8 6 -3 1 9 64 12 96 5 6 -1 12
-1 15 0 16 7 130 4 130 -4 0 -5 8 -2 17 5 14 12 16 12 8 0 -6 -10 -4 -12 6 -5
19 11 79 11 72 0 -4 -5 0 -5 8 0 18 11 80 14 74 3 -3 -4 -1 -11 5 -14 6 -4 9
-1 8 6 -2 8 10 14 32 16 19 1 73 7 119 13 47 5 87 8 89 5 3 -3 10 -1 16 4 6 5
38 14 71 21 73 15 215 59 232 73 7 5 20 7 28 3 9 -3 13 -2 10 4 -5 9 19 15 28
8 2 -2 12 5 22 15 9 10 24 16 32 13 9 -4 11 -2 7 6 -5 8 -2 9 10 5 9 -4 15 -3
12 1 -2 4 21 21 52 37 63 33 204 126 240 158 12 11 22 17 22 12 0 -4 9 4 21
19 11 14 25 24 30 20 5 -3 8 -2 7 3 -3 11 174 188 185 185 5 -1 6 2 3 7 -4 5
0 15 7 23 7 7 28 34 46 60 19 26 38 45 44 41 6 -3 7 -1 3 5 -3 6 7 30 23 54
15 24 40 64 53 90 14 26 29 44 33 40 5 -4 5 -2 2 4 -8 14 37 106 48 97 4 -5 5
-3 2 3 -8 13 14 74 26 74 4 0 6 4 3 9 -8 13 4 42 15 35 5 -3 6 2 3 11 -3 8 1
33 10 55 9 22 14 40 11 40 -2 0 3 16 11 35 8 19 12 35 9 35 -2 0 0 11 5 24 5
13 12 46 15 73 4 26 8 62 10 78 3 17 7 41 10 55 7 30 7 3756 1 3815 -38 328
-141 601 -322 857 -75 106 -285 316 -389 389 -209 148 -468 259 -691 298 -33
5 -75 13 -94 18 -19 4 -892 8 -1940 9 -1482 1 -1924 -1 -1990 -11z"/>
<path d="M1870 40 c0 -5 5 -10 11 -10 5 0 7 5 4 10 -3 6 -8 10 -11 10 -2 0 -4
-4 -4 -10z"/>
<path d="M5430 39 c0 -5 5 -7 10 -4 6 3 10 8 10 11 0 2 -4 4 -10 4 -5 0 -10
-5 -10 -11z"/>
</g>
</svg>
